<?xml version="1.0" encoding="UTF-8"?>
<svg id="Camada_2" data-name="Camada 2" xmlns="http://www.w3.org/2000/svg" viewBox="0 0 339.45 53.02">
  <defs>
    <style>
      .cls-1 {
        fill: #fefefe;
        fill-rule: evenodd;
      }
    </style>
  </defs>
  <g id="Camada_1-2" data-name="Camada 1">
    <path class="cls-1" d="M168.64,10.23c5.34-.14,12.34-.26,17.6.03,5.55.31,10.17,1.44,10.1,7.47-.07,5.86-4.68,7.24-10.35,7.22-5.79-.02-11.59,0-17.38,0l.03-14.73h0ZM168.76,33.99l17.52.04c.79,1.78,10.66,17.16,11.23,17.84l13.5.04c-.71-1.77-11.51-17.69-12.48-19.79,2.28-1.58,5.7-2.01,8.28-6.54,1.94-3.39,2.64-8.29,1.51-12.43-2.14-7.84-10.27-11.95-18.04-11.9l-33.85-.04-.02,50.51,12.02.04c0-2.95-.02-5.89-.02-8.84l.03-8.4c.15-.58.02-.23.31-.54h0Z"/>
    <path class="cls-1" d="M282.45,35.67c.84,3.88,1.3,6.25,3.63,8.95,1.75,2.02,3.92,3.85,7.11,5.12,11.12,4.45,30.94,4.92,40.74-2.16,4.31-3.11,7.78-11.03,3.7-17.55-6.54-10.43-29.89-6.84-38.3-11.13-3.84-1.96-5.93-8.97,9.55-9.73,5.08-.25,11.4.17,15,3.65,1.78,1.72,1.09,1.6,2.05,3.99l11.78-.78c.12-1.52-.61-3.89-1.19-5.06-5.14-10.48-21.19-11.8-31.58-10.61-5.87.68-14,2.58-17.59,7.12-4.17,5.27-4.51,12.88.76,17.34,9.66,8.16,35.29,4.12,38.43,10.75,4.31,9.1-17.91,9.96-26.13,6.46-4.73-2.02-4.33-4.53-5.46-6.89l-12.51.52Z"/>
    <path class="cls-1" d="M80.88,32.1c.09-1.22,4.19-9.13,4.97-10.82l5.09-10.46c.69,1.44,10.01,20.19,10.04,21.21l-20.1.07h0ZM57.87,51.85l13.17.04,5.28-10.85,29.28-.02,5.29,10.8,13.31.07-19.31-38.01c-1.11-2.09-2.05-4.19-3.2-6.4-1.04-1.99-2.48-4.55-3.19-6.44l-14.8.02c-1.01,2.54-11.16,22.06-12.82,25.38-2.69,5.38-6.82,13.8-9.76,19.04-1.02,1.81-2.51,4.59-3.25,6.36Z"/>
    <path class="cls-1" d="M.07,51.81l12.17.09.12-20.79h9.08c.37.72,1.5,1.93,2.2,2.58l3.56,3.88c2.29,2.87,7.98,8.61,10.64,11.68.6.69,1.84,2.1,2.48,2.61l15.09.02-4.28-4.89c-.78-.75-.88-.86-1.51-1.6-.98-1.14-1.96-2.15-2.96-3.28l-14.97-16.15c.53-1.2,15.85-16.87,17.32-18.49,1.13-1.25,5.28-5.33,5.86-6.39h-14.31c-.45.1-.98.82-1.58,1.4-.7.68-.95.92-1.54,1.58-.96,1.07-1.87,2.04-2.89,3.11l-11.86,12.62c-1.42,1.62-1.32,1.77-4.21,1.75-1.8-.01-4.43.16-6.12-.08l-.03-20.38H0s.07,50.73.07,50.73h0Z"/>
    <path class="cls-1" d="M218.46,1.2c-.37,6.32-.04,13.69-.04,20.13,0,6.51-.32,12.61,1.93,17.97,4.33,10.31,15.38,13.87,26.13,13.71,12.52-.18,22.37-4.07,26.04-13.8,2.29-6.06,1.77-11.09,1.77-18.12,0-6.62.11-13.33-.01-20.02l-12.4.05c-.03,4.89,0,9.79,0,14.69,0,12.5,2.85,27.7-15.63,27.64-9.35-.03-14.56-4.62-15.33-13.46-.34-3.93-.11-23.39-.09-28.82-1.34-.22-11.16-.22-12.37.04h0Z"/>
    <path class="cls-1" d="M131.67,1.08c-.33,1.19-.29,49.83,0,50.82l12.25-.03-.09-50.8-12.17.02h0Z"/>
    <path class="cls-1" d="M168.76,33.99c-.28.31-.15-.04-.31.54l-.03,8.4c0,2.94,0,5.89.02,8.84l-12.02-.04.02-50.51,33.85.04c-.43-.41.07-.24-.91-.31l-33.03.09c-.37,1.25-.36,49.7,0,50.95l12.32-.07.1-17.91h0Z"/>
  </g>
</svg>